<mxfile host="65bd71144e">
    <diagram name="example" id="KoSUE74qEvxW8igirt8E">
        <mxGraphModel dx="1855" dy="344" grid="1" gridSize="10" guides="1" tooltips="1" connect="1" arrows="1" fold="1" page="1" pageScale="1" pageWidth="850" pageHeight="1100" math="0" shadow="0">
            <root>
                <mxCell id="MUEfaUzNLzfg0EpO2dZm-0"/>
                <mxCell id="MUEfaUzNLzfg0EpO2dZm-1" parent="MUEfaUzNLzfg0EpO2dZm-0"/>
                <mxCell id="E12CDIFdaAiXbR94aEUh-0" value="" style="rounded=1;whiteSpace=wrap;html=1;strokeColor=default;fontColor=#FFFFFF;fillColor=default;dashed=1;dashPattern=12 12;" vertex="1" parent="MUEfaUzNLzfg0EpO2dZm-1">
                    <mxGeometry x="160" y="140" width="580" height="670" as="geometry"/>
                </mxCell>
                <mxCell id="E12CDIFdaAiXbR94aEUh-1" value="" style="rounded=1;whiteSpace=wrap;html=1;dashed=1;dashPattern=8 8;" vertex="1" parent="MUEfaUzNLzfg0EpO2dZm-1">
                    <mxGeometry x="170" y="420" width="230" height="350" as="geometry"/>
                </mxCell>
                <mxCell id="E12CDIFdaAiXbR94aEUh-2" style="edgeStyle=elbowEdgeStyle;elbow=vertical;html=1;entryX=0.5;entryY=0;entryDx=0;entryDy=0;entryPerimeter=0;fontColor=#FFFFFF;startArrow=none;startFill=0;rounded=1;" edge="1" parent="MUEfaUzNLzfg0EpO2dZm-1" source="E12CDIFdaAiXbR94aEUh-3" target="E12CDIFdaAiXbR94aEUh-7">
                    <mxGeometry relative="1" as="geometry"/>
                </mxCell>
                <mxCell id="E12CDIFdaAiXbR94aEUh-3" value="ECS" style="points=[[0,0,0],[0.25,0,0],[0.5,0,0],[0.75,0,0],[1,0,0],[0,1,0],[0.25,1,0],[0.5,1,0],[0.75,1,0],[1,1,0],[0,0.25,0],[0,0.5,0],[0,0.75,0],[1,0.25,0],[1,0.5,0],[1,0.75,0]];outlineConnect=0;fontColor=#FFFFFF;gradientColor=#F78E04;gradientDirection=north;fillColor=#D05C17;strokeColor=#ffffff;dashed=0;verticalLabelPosition=bottom;verticalAlign=top;align=center;html=1;fontSize=12;fontStyle=0;aspect=fixed;shape=mxgraph.aws4.resourceIcon;resIcon=mxgraph.aws4.ecs;dashPattern=8 8;rounded=1;" vertex="1" parent="MUEfaUzNLzfg0EpO2dZm-1">
                    <mxGeometry x="256.88" y="430" width="78" height="78" as="geometry"/>
                </mxCell>
                <mxCell id="E12CDIFdaAiXbR94aEUh-5" style="edgeStyle=elbowEdgeStyle;elbow=vertical;html=1;fontColor=#FFFFFF;startArrow=none;startFill=0;rounded=1;" edge="1" parent="MUEfaUzNLzfg0EpO2dZm-1" source="E12CDIFdaAiXbR94aEUh-7" target="E12CDIFdaAiXbR94aEUh-10">
                    <mxGeometry relative="1" as="geometry"/>
                </mxCell>
                <mxCell id="E12CDIFdaAiXbR94aEUh-7" value="Fargate" style="points=[[0,0,0],[0.25,0,0],[0.5,0,0],[0.75,0,0],[1,0,0],[0,1,0],[0.25,1,0],[0.5,1,0],[0.75,1,0],[1,1,0],[0,0.25,0],[0,0.5,0],[0,0.75,0],[1,0.25,0],[1,0.5,0],[1,0.75,0]];outlineConnect=0;fontColor=#FFFFFF;gradientColor=#F78E04;gradientDirection=north;fillColor=#D05C17;strokeColor=#ffffff;dashed=0;verticalLabelPosition=bottom;verticalAlign=top;align=center;html=1;fontSize=12;fontStyle=0;aspect=fixed;shape=mxgraph.aws4.resourceIcon;resIcon=mxgraph.aws4.fargate;dashPattern=8 8;rounded=1;" vertex="1" parent="MUEfaUzNLzfg0EpO2dZm-1">
                    <mxGeometry x="256.88" y="550" width="78" height="78" as="geometry"/>
                </mxCell>
                <mxCell id="E12CDIFdaAiXbR94aEUh-10" value="Task Definition&lt;br&gt;Nginx" style="outlineConnect=0;fontColor=#FFFFFF;gradientColor=none;fillColor=#D45B07;strokeColor=none;dashed=0;verticalLabelPosition=bottom;verticalAlign=top;align=center;html=1;fontSize=12;fontStyle=0;aspect=fixed;pointerEvents=1;shape=mxgraph.aws4.ecs_task;dashPattern=8 8;spacingLeft=0;rounded=1;" vertex="1" parent="MUEfaUzNLzfg0EpO2dZm-1">
                    <mxGeometry x="277.38" y="670" width="37" height="48" as="geometry"/>
                </mxCell>
                <mxCell id="E12CDIFdaAiXbR94aEUh-15" style="edgeStyle=elbowEdgeStyle;elbow=vertical;html=1;strokeColor=#2D7600;strokeWidth=3;fontColor=#FFFFFF;startArrow=none;startFill=0;endArrow=classic;endFill=1;fillColor=#60a917;rounded=1;" edge="1" parent="MUEfaUzNLzfg0EpO2dZm-1" source="E12CDIFdaAiXbR94aEUh-16" target="E12CDIFdaAiXbR94aEUh-17">
                    <mxGeometry relative="1" as="geometry"/>
                </mxCell>
                <mxCell id="E12CDIFdaAiXbR94aEUh-16" value="" style="shape=actor;whiteSpace=wrap;html=1;fontColor=#FFFFFF;rounded=1;" vertex="1" parent="MUEfaUzNLzfg0EpO2dZm-1">
                    <mxGeometry x="421" y="40" width="40" height="60" as="geometry"/>
                </mxCell>
                <mxCell id="E12CDIFdaAiXbR94aEUh-17" value="Internet&amp;nbsp; &amp;nbsp; &amp;nbsp;Gateway" style="outlineConnect=0;fontColor=#FFFFFF;gradientColor=none;strokeColor=#232F3E;fillColor=#ffffff;dashed=0;verticalLabelPosition=bottom;verticalAlign=top;align=center;html=1;fontSize=12;fontStyle=0;aspect=fixed;shape=mxgraph.aws4.resourceIcon;resIcon=mxgraph.aws4.internet_gateway;rounded=1;" vertex="1" parent="MUEfaUzNLzfg0EpO2dZm-1">
                    <mxGeometry x="411" y="160" width="60" height="60" as="geometry"/>
                </mxCell>
                <mxCell id="E12CDIFdaAiXbR94aEUh-18" value="Private Subnet A" style="text;html=1;strokeColor=default;fillColor=default;align=center;verticalAlign=middle;whiteSpace=wrap;rounded=1;fontColor=#FFFFFF;" vertex="1" parent="MUEfaUzNLzfg0EpO2dZm-1">
                    <mxGeometry x="172.44" y="410" width="60" height="30" as="geometry"/>
                </mxCell>
                <mxCell id="E12CDIFdaAiXbR94aEUh-19" value="VPC" style="text;html=1;strokeColor=default;fillColor=default;align=center;verticalAlign=middle;whiteSpace=wrap;rounded=1;fontColor=#FFFFFF;" vertex="1" parent="MUEfaUzNLzfg0EpO2dZm-1">
                    <mxGeometry x="219" y="130" width="60" height="30" as="geometry"/>
                </mxCell>
                <mxCell id="E12CDIFdaAiXbR94aEUh-20" value="" style="rounded=1;whiteSpace=wrap;html=1;dashed=1;dashPattern=12 12;strokeColor=default;fontColor=#FFFFFF;fillColor=default;" vertex="1" parent="MUEfaUzNLzfg0EpO2dZm-1">
                    <mxGeometry x="189" y="251.5" width="178.88" height="130" as="geometry"/>
                </mxCell>
                <mxCell id="E12CDIFdaAiXbR94aEUh-21" value="Public Subnet A" style="text;html=1;strokeColor=default;fillColor=default;align=center;verticalAlign=middle;whiteSpace=wrap;rounded=1;fontColor=#FFFFFF;" vertex="1" parent="MUEfaUzNLzfg0EpO2dZm-1">
                    <mxGeometry x="196.88" y="236.5" width="60" height="30" as="geometry"/>
                </mxCell>
                <mxCell id="E12CDIFdaAiXbR94aEUh-22" value="" style="outlineConnect=0;fontColor=#232F3E;gradientColor=none;fillColor=#4D27AA;strokeColor=none;dashed=0;verticalLabelPosition=bottom;verticalAlign=top;align=center;html=1;fontSize=12;fontStyle=0;aspect=fixed;pointerEvents=1;shape=mxgraph.aws4.nat_gateway;dashPattern=12 12;rounded=1;" vertex="1" parent="MUEfaUzNLzfg0EpO2dZm-1">
                    <mxGeometry x="256" y="277.5" width="78" height="78" as="geometry"/>
                </mxCell>
                <mxCell id="E12CDIFdaAiXbR94aEUh-23" value="NAT GATEWAY" style="text;html=1;strokeColor=default;fillColor=default;align=center;verticalAlign=middle;whiteSpace=wrap;rounded=1;fontColor=#FFFFFF;" vertex="1" parent="MUEfaUzNLzfg0EpO2dZm-1">
                    <mxGeometry x="196.88" y="325.5" width="60" height="30" as="geometry"/>
                </mxCell>
                <mxCell id="E12CDIFdaAiXbR94aEUh-24" style="edgeStyle=elbowEdgeStyle;elbow=vertical;html=1;fontColor=#FFFFFF;startArrow=none;startFill=0;strokeWidth=3;exitX=0.5;exitY=0;exitDx=0;exitDy=0;exitPerimeter=0;rounded=1;entryX=0.499;entryY=0.976;entryDx=0;entryDy=0;entryPerimeter=0;" edge="1" parent="MUEfaUzNLzfg0EpO2dZm-1" source="E12CDIFdaAiXbR94aEUh-3" target="E12CDIFdaAiXbR94aEUh-22">
                    <mxGeometry relative="1" as="geometry">
                        <Array as="points">
                            <mxPoint x="320" y="400"/>
                            <mxPoint x="220" y="510"/>
                        </Array>
                    </mxGeometry>
                </mxCell>
                <mxCell id="E12CDIFdaAiXbR94aEUh-26" value="" style="outlineConnect=0;fontColor=#FFFFFF;gradientColor=none;fillColor=#4D27AA;strokeColor=none;dashed=0;verticalLabelPosition=bottom;verticalAlign=top;align=center;html=1;fontSize=12;fontStyle=0;aspect=fixed;pointerEvents=1;shape=mxgraph.aws4.application_load_balancer;dashPattern=8 8;spacingLeft=0;spacingRight=0;spacingBottom=0;rounded=1;" vertex="1" parent="MUEfaUzNLzfg0EpO2dZm-1">
                    <mxGeometry x="402" y="270" width="78" height="78" as="geometry"/>
                </mxCell>
                <mxCell id="E12CDIFdaAiXbR94aEUh-27" value="LoadBalancer" style="text;html=1;strokeColor=default;fillColor=default;align=center;verticalAlign=middle;whiteSpace=wrap;rounded=1;fontColor=#FFFFFF;" vertex="1" parent="MUEfaUzNLzfg0EpO2dZm-1">
                    <mxGeometry x="400.5" y="349" width="81" height="36" as="geometry"/>
                </mxCell>
                <mxCell id="E12CDIFdaAiXbR94aEUh-28" style="edgeStyle=elbowEdgeStyle;elbow=vertical;html=1;strokeWidth=3;fontColor=#FFFFFF;startArrow=classic;startFill=1;endArrow=none;endFill=0;rounded=1;entryX=0.508;entryY=0.01;entryDx=0;entryDy=0;entryPerimeter=0;" edge="1" parent="MUEfaUzNLzfg0EpO2dZm-1" source="E12CDIFdaAiXbR94aEUh-17" target="E12CDIFdaAiXbR94aEUh-22">
                    <mxGeometry relative="1" as="geometry">
                        <Array as="points">
                            <mxPoint x="339" y="190"/>
                            <mxPoint x="329" y="220"/>
                            <mxPoint x="379" y="240"/>
                        </Array>
                    </mxGeometry>
                </mxCell>
                <mxCell id="E12CDIFdaAiXbR94aEUh-29" style="edgeStyle=elbowEdgeStyle;elbow=vertical;html=1;strokeWidth=3;fontColor=#FFFFFF;startArrow=none;startFill=0;endArrow=classic;endFill=1;strokeColor=#2D7600;fillColor=#60a917;rounded=1;" edge="1" parent="MUEfaUzNLzfg0EpO2dZm-1" source="E12CDIFdaAiXbR94aEUh-17" target="E12CDIFdaAiXbR94aEUh-26">
                    <mxGeometry relative="1" as="geometry">
                        <Array as="points">
                            <mxPoint x="430" y="290"/>
                            <mxPoint x="499" y="190"/>
                        </Array>
                    </mxGeometry>
                </mxCell>
                <mxCell id="E12CDIFdaAiXbR94aEUh-31" value="" style="rounded=1;whiteSpace=wrap;html=1;dashed=1;dashPattern=12 12;strokeColor=default;fontColor=#FFFFFF;fillColor=default;" vertex="1" parent="MUEfaUzNLzfg0EpO2dZm-1">
                    <mxGeometry x="520" y="255.5" width="178.88" height="130" as="geometry"/>
                </mxCell>
                <mxCell id="E12CDIFdaAiXbR94aEUh-32" value="Public Subnet B" style="text;html=1;strokeColor=default;fillColor=default;align=center;verticalAlign=middle;whiteSpace=wrap;rounded=1;fontColor=#FFFFFF;" vertex="1" parent="MUEfaUzNLzfg0EpO2dZm-1">
                    <mxGeometry x="630" y="236.5" width="60" height="30" as="geometry"/>
                </mxCell>
                <mxCell id="E12CDIFdaAiXbR94aEUh-33" value="" style="outlineConnect=0;fontColor=#232F3E;gradientColor=none;fillColor=#4D27AA;strokeColor=none;dashed=0;verticalLabelPosition=bottom;verticalAlign=top;align=center;html=1;fontSize=12;fontStyle=0;aspect=fixed;pointerEvents=1;shape=mxgraph.aws4.nat_gateway;dashPattern=12 12;rounded=1;" vertex="1" parent="MUEfaUzNLzfg0EpO2dZm-1">
                    <mxGeometry x="587.5" y="281.5" width="78" height="78" as="geometry"/>
                </mxCell>
                <mxCell id="E12CDIFdaAiXbR94aEUh-34" value="NAT GATEWAY" style="text;html=1;strokeColor=default;fillColor=default;align=center;verticalAlign=middle;whiteSpace=wrap;rounded=1;fontColor=#FFFFFF;" vertex="1" parent="MUEfaUzNLzfg0EpO2dZm-1">
                    <mxGeometry x="528.5" y="332.5" width="60" height="30" as="geometry"/>
                </mxCell>
                <mxCell id="E12CDIFdaAiXbR94aEUh-42" value="" style="rounded=1;whiteSpace=wrap;html=1;dashed=1;dashPattern=8 8;" vertex="1" parent="MUEfaUzNLzfg0EpO2dZm-1">
                    <mxGeometry x="500" y="420.00000000000006" width="230" height="351.05" as="geometry"/>
                </mxCell>
                <mxCell id="E12CDIFdaAiXbR94aEUh-43" style="edgeStyle=elbowEdgeStyle;elbow=vertical;html=1;entryX=0.5;entryY=0;entryDx=0;entryDy=0;entryPerimeter=0;fontColor=#FFFFFF;startArrow=none;startFill=0;rounded=1;" edge="1" parent="MUEfaUzNLzfg0EpO2dZm-1" target="E12CDIFdaAiXbR94aEUh-46">
                    <mxGeometry relative="1" as="geometry">
                        <mxPoint x="588" y="639" as="sourcePoint"/>
                    </mxGeometry>
                </mxCell>
                <mxCell id="E12CDIFdaAiXbR94aEUh-45" style="edgeStyle=elbowEdgeStyle;elbow=vertical;html=1;fontColor=#FFFFFF;startArrow=none;startFill=0;rounded=1;" edge="1" parent="MUEfaUzNLzfg0EpO2dZm-1" target="E12CDIFdaAiXbR94aEUh-47">
                    <mxGeometry relative="1" as="geometry">
                        <mxPoint x="587.5" y="779" as="sourcePoint"/>
                    </mxGeometry>
                </mxCell>
                <mxCell id="E12CDIFdaAiXbR94aEUh-48" value="Private Subnet B" style="text;html=1;strokeColor=default;fillColor=default;align=center;verticalAlign=middle;whiteSpace=wrap;rounded=1;fontColor=#FFFFFF;" vertex="1" parent="MUEfaUzNLzfg0EpO2dZm-1">
                    <mxGeometry x="502.44" y="410.00000000000006" width="60" height="30" as="geometry"/>
                </mxCell>
                <mxCell id="E12CDIFdaAiXbR94aEUh-50" style="edgeStyle=elbowEdgeStyle;elbow=vertical;html=1;strokeWidth=3;fontColor=#FFFFFF;startArrow=classic;startFill=1;endArrow=none;endFill=0;rounded=1;" edge="1" parent="MUEfaUzNLzfg0EpO2dZm-1" source="E12CDIFdaAiXbR94aEUh-17" target="E12CDIFdaAiXbR94aEUh-33">
                    <mxGeometry relative="1" as="geometry">
                        <Array as="points">
                            <mxPoint x="587" y="190"/>
                            <mxPoint x="560" y="190"/>
                            <mxPoint x="580" y="200"/>
                            <mxPoint x="339" y="230"/>
                            <mxPoint x="389" y="250"/>
                        </Array>
                        <mxPoint x="404" y="200" as="sourcePoint"/>
                        <mxPoint x="323.0640000000003" y="425.78" as="targetPoint"/>
                    </mxGeometry>
                </mxCell>
                <mxCell id="E12CDIFdaAiXbR94aEUh-51" style="edgeStyle=elbowEdgeStyle;elbow=vertical;html=1;entryX=0.5;entryY=0;entryDx=0;entryDy=0;entryPerimeter=0;fontColor=#FFFFFF;startArrow=none;startFill=0;rounded=1;" edge="1" parent="MUEfaUzNLzfg0EpO2dZm-1" source="E12CDIFdaAiXbR94aEUh-52" target="E12CDIFdaAiXbR94aEUh-54">
                    <mxGeometry relative="1" as="geometry"/>
                </mxCell>
                <mxCell id="E12CDIFdaAiXbR94aEUh-52" value="ECS" style="points=[[0,0,0],[0.25,0,0],[0.5,0,0],[0.75,0,0],[1,0,0],[0,1,0],[0.25,1,0],[0.5,1,0],[0.75,1,0],[1,1,0],[0,0.25,0],[0,0.5,0],[0,0.75,0],[1,0.25,0],[1,0.5,0],[1,0.75,0]];outlineConnect=0;fontColor=#FFFFFF;gradientColor=#F78E04;gradientDirection=north;fillColor=#D05C17;strokeColor=#ffffff;dashed=0;verticalLabelPosition=bottom;verticalAlign=top;align=center;html=1;fontSize=12;fontStyle=0;aspect=fixed;shape=mxgraph.aws4.resourceIcon;resIcon=mxgraph.aws4.ecs;dashPattern=8 8;rounded=1;" vertex="1" parent="MUEfaUzNLzfg0EpO2dZm-1">
                    <mxGeometry x="587" y="431.05" width="78" height="78" as="geometry"/>
                </mxCell>
                <mxCell id="E12CDIFdaAiXbR94aEUh-53" style="edgeStyle=elbowEdgeStyle;elbow=vertical;html=1;fontColor=#FFFFFF;startArrow=none;startFill=0;rounded=1;" edge="1" parent="MUEfaUzNLzfg0EpO2dZm-1" source="E12CDIFdaAiXbR94aEUh-54" target="E12CDIFdaAiXbR94aEUh-55">
                    <mxGeometry relative="1" as="geometry"/>
                </mxCell>
                <mxCell id="E12CDIFdaAiXbR94aEUh-54" value="Fargate" style="points=[[0,0,0],[0.25,0,0],[0.5,0,0],[0.75,0,0],[1,0,0],[0,1,0],[0.25,1,0],[0.5,1,0],[0.75,1,0],[1,1,0],[0,0.25,0],[0,0.5,0],[0,0.75,0],[1,0.25,0],[1,0.5,0],[1,0.75,0]];outlineConnect=0;fontColor=#FFFFFF;gradientColor=#F78E04;gradientDirection=north;fillColor=#D05C17;strokeColor=#ffffff;dashed=0;verticalLabelPosition=bottom;verticalAlign=top;align=center;html=1;fontSize=12;fontStyle=0;aspect=fixed;shape=mxgraph.aws4.resourceIcon;resIcon=mxgraph.aws4.fargate;dashPattern=8 8;rounded=1;" vertex="1" parent="MUEfaUzNLzfg0EpO2dZm-1">
                    <mxGeometry x="587" y="551.05" width="78" height="78" as="geometry"/>
                </mxCell>
                <mxCell id="E12CDIFdaAiXbR94aEUh-55" value="Task Definition&lt;br&gt;Nginx" style="outlineConnect=0;fontColor=#FFFFFF;gradientColor=none;fillColor=#D45B07;strokeColor=none;dashed=0;verticalLabelPosition=bottom;verticalAlign=top;align=center;html=1;fontSize=12;fontStyle=0;aspect=fixed;pointerEvents=1;shape=mxgraph.aws4.ecs_task;dashPattern=8 8;spacingLeft=0;rounded=1;" vertex="1" parent="MUEfaUzNLzfg0EpO2dZm-1">
                    <mxGeometry x="607.5" y="671.05" width="37" height="48" as="geometry"/>
                </mxCell>
                <mxCell id="E12CDIFdaAiXbR94aEUh-56" style="edgeStyle=elbowEdgeStyle;elbow=vertical;html=1;fontColor=#FFFFFF;startArrow=none;startFill=0;strokeWidth=3;exitX=0.5;exitY=0;exitDx=0;exitDy=0;exitPerimeter=0;rounded=1;" edge="1" parent="MUEfaUzNLzfg0EpO2dZm-1">
                    <mxGeometry relative="1" as="geometry">
                        <mxPoint x="627.06" y="359.5" as="targetPoint"/>
                        <Array as="points">
                            <mxPoint x="627.06" y="430.5"/>
                            <mxPoint x="635.06" y="470.5"/>
                            <mxPoint x="535.06" y="380.5"/>
                        </Array>
                        <mxPoint x="627.4999999999995" y="430.4999999999998" as="sourcePoint"/>
                    </mxGeometry>
                </mxCell>
            </root>
        </mxGraphModel>
    </diagram>
    <diagram id="N9QRYx7wn-zpyOPovLZV" name="v1">
        <mxGraphModel dx="2355" dy="905" grid="1" gridSize="10" guides="1" tooltips="1" connect="1" arrows="1" fold="1" page="1" pageScale="1" pageWidth="850" pageHeight="1100" math="0" shadow="0">
            <root>
                <mxCell id="0"/>
                <mxCell id="1" parent="0"/>
                <mxCell id="22" value="" style="rounded=1;whiteSpace=wrap;html=1;strokeColor=default;fontColor=#FFFFFF;fillColor=default;dashed=1;dashPattern=12 12;" parent="1" vertex="1">
                    <mxGeometry x="213" y="160" width="424.5" height="880" as="geometry"/>
                </mxCell>
                <mxCell id="2" value="" style="rounded=1;whiteSpace=wrap;html=1;dashed=1;dashPattern=8 8;" parent="1" vertex="1">
                    <mxGeometry x="260.25" y="380" width="330" height="630" as="geometry"/>
                </mxCell>
                <mxCell id="25" style="edgeStyle=elbowEdgeStyle;elbow=vertical;html=1;entryX=0.5;entryY=0;entryDx=0;entryDy=0;entryPerimeter=0;fontColor=#FFFFFF;startArrow=none;startFill=0;" parent="1" source="3" target="4" edge="1">
                    <mxGeometry relative="1" as="geometry"/>
                </mxCell>
                <mxCell id="3" value="ECS" style="sketch=0;points=[[0,0,0],[0.25,0,0],[0.5,0,0],[0.75,0,0],[1,0,0],[0,1,0],[0.25,1,0],[0.5,1,0],[0.75,1,0],[1,1,0],[0,0.25,0],[0,0.5,0],[0,0.75,0],[1,0.25,0],[1,0.5,0],[1,0.75,0]];outlineConnect=0;fontColor=#FFFFFF;gradientColor=#F78E04;gradientDirection=north;fillColor=#D05C17;strokeColor=#ffffff;dashed=0;verticalLabelPosition=bottom;verticalAlign=top;align=center;html=1;fontSize=12;fontStyle=0;aspect=fixed;shape=mxgraph.aws4.resourceIcon;resIcon=mxgraph.aws4.ecs;dashPattern=8 8;" parent="1" vertex="1">
                    <mxGeometry x="386.25" y="430" width="78" height="78" as="geometry"/>
                </mxCell>
                <mxCell id="26" style="edgeStyle=elbowEdgeStyle;elbow=vertical;html=1;fontColor=#FFFFFF;startArrow=none;startFill=0;" parent="1" source="4" target="5" edge="1">
                    <mxGeometry relative="1" as="geometry"/>
                </mxCell>
                <mxCell id="27" style="edgeStyle=elbowEdgeStyle;elbow=vertical;html=1;fontColor=#FFFFFF;startArrow=none;startFill=0;" parent="1" source="4" target="6" edge="1">
                    <mxGeometry relative="1" as="geometry"/>
                </mxCell>
                <mxCell id="28" style="edgeStyle=elbowEdgeStyle;elbow=vertical;html=1;fontColor=#FFFFFF;startArrow=none;startFill=0;" parent="1" source="4" target="7" edge="1">
                    <mxGeometry relative="1" as="geometry"/>
                </mxCell>
                <mxCell id="4" value="Fargate" style="sketch=0;points=[[0,0,0],[0.25,0,0],[0.5,0,0],[0.75,0,0],[1,0,0],[0,1,0],[0.25,1,0],[0.5,1,0],[0.75,1,0],[1,1,0],[0,0.25,0],[0,0.5,0],[0,0.75,0],[1,0.25,0],[1,0.5,0],[1,0.75,0]];outlineConnect=0;fontColor=#FFFFFF;gradientColor=#F78E04;gradientDirection=north;fillColor=#D05C17;strokeColor=#ffffff;dashed=0;verticalLabelPosition=bottom;verticalAlign=top;align=center;html=1;fontSize=12;fontStyle=0;aspect=fixed;shape=mxgraph.aws4.resourceIcon;resIcon=mxgraph.aws4.fargate;dashPattern=8 8;" parent="1" vertex="1">
                    <mxGeometry x="386.25" y="570" width="78" height="78" as="geometry"/>
                </mxCell>
                <mxCell id="5" value="API Task" style="sketch=0;outlineConnect=0;fontColor=#FFFFFF;gradientColor=none;fillColor=#D45B07;strokeColor=none;dashed=0;verticalLabelPosition=bottom;verticalAlign=top;align=center;html=1;fontSize=12;fontStyle=0;aspect=fixed;pointerEvents=1;shape=mxgraph.aws4.ecs_task;dashPattern=8 8;" parent="1" vertex="1">
                    <mxGeometry x="308.75" y="720" width="37" height="48" as="geometry"/>
                </mxCell>
                <mxCell id="10" style="edgeStyle=none;html=1;fontColor=#FFFFFF;startArrow=classic;startFill=1;" parent="1" target="9" edge="1">
                    <mxGeometry relative="1" as="geometry">
                        <mxPoint x="424.25" y="790" as="sourcePoint"/>
                    </mxGeometry>
                </mxCell>
                <mxCell id="6" value="grpc Task" style="sketch=0;outlineConnect=0;fontColor=#FFFFFF;gradientColor=none;fillColor=#D45B07;strokeColor=none;dashed=0;verticalLabelPosition=bottom;verticalAlign=top;align=center;html=1;fontSize=12;fontStyle=0;aspect=fixed;pointerEvents=1;shape=mxgraph.aws4.ecs_task;dashPattern=8 8;" parent="1" vertex="1">
                    <mxGeometry x="405.25" y="720" width="37" height="48" as="geometry"/>
                </mxCell>
                <mxCell id="7" value="rmq-consumer Task" style="sketch=0;outlineConnect=0;fontColor=#FFFFFF;gradientColor=none;fillColor=#D45B07;strokeColor=none;dashed=0;verticalLabelPosition=bottom;verticalAlign=top;align=center;html=1;fontSize=12;fontStyle=0;aspect=fixed;pointerEvents=1;shape=mxgraph.aws4.ecs_task;dashPattern=8 8;" parent="1" vertex="1">
                    <mxGeometry x="504.75" y="720" width="37" height="48" as="geometry"/>
                </mxCell>
                <mxCell id="11" style="edgeStyle=elbowEdgeStyle;html=1;fontColor=#FFFFFF;startArrow=classic;startFill=1;elbow=vertical;" parent="1" source="9" edge="1">
                    <mxGeometry relative="1" as="geometry">
                        <mxPoint x="522.25" y="790" as="targetPoint"/>
                    </mxGeometry>
                </mxCell>
                <mxCell id="12" style="edgeStyle=elbowEdgeStyle;elbow=vertical;html=1;fontColor=#FFFFFF;startArrow=classic;startFill=1;" parent="1" source="9" edge="1">
                    <mxGeometry relative="1" as="geometry">
                        <mxPoint x="327.25" y="790" as="targetPoint"/>
                    </mxGeometry>
                </mxCell>
                <mxCell id="9" value="Internal LoadBalancer" style="sketch=0;outlineConnect=0;fontColor=#FFFFFF;gradientColor=none;fillColor=#4D27AA;strokeColor=none;dashed=0;verticalLabelPosition=bottom;verticalAlign=top;align=center;html=1;fontSize=12;fontStyle=0;aspect=fixed;pointerEvents=1;shape=mxgraph.aws4.application_load_balancer;dashPattern=8 8;" parent="1" vertex="1">
                    <mxGeometry x="384.75" y="900" width="78" height="78" as="geometry"/>
                </mxCell>
                <mxCell id="14" style="edgeStyle=elbowEdgeStyle;elbow=vertical;html=1;fontColor=#FFFFFF;startArrow=classic;startFill=1;entryX=0.5;entryY=0;entryDx=0;entryDy=0;entryPerimeter=0;" parent="1" source="13" target="3" edge="1">
                    <mxGeometry relative="1" as="geometry">
                        <Array as="points">
                            <mxPoint x="425.25" y="390"/>
                        </Array>
                    </mxGeometry>
                </mxCell>
                <mxCell id="13" value="" style="sketch=0;outlineConnect=0;fontColor=#FFFFFF;gradientColor=none;fillColor=#4D27AA;strokeColor=none;dashed=0;verticalLabelPosition=bottom;verticalAlign=top;align=center;html=1;fontSize=12;fontStyle=0;aspect=fixed;pointerEvents=1;shape=mxgraph.aws4.application_load_balancer;dashPattern=8 8;spacingLeft=0;spacingRight=0;spacingBottom=0;" parent="1" vertex="1">
                    <mxGeometry x="384.75" y="270" width="78" height="78" as="geometry"/>
                </mxCell>
                <mxCell id="30" style="edgeStyle=elbowEdgeStyle;elbow=vertical;html=1;fontColor=#FFFFFF;startArrow=none;startFill=0;" parent="1" source="15" target="18" edge="1">
                    <mxGeometry relative="1" as="geometry"/>
                </mxCell>
                <mxCell id="15" value="" style="shape=actor;whiteSpace=wrap;html=1;fontColor=#FFFFFF;" parent="1" vertex="1">
                    <mxGeometry x="403.75" y="40" width="40" height="60" as="geometry"/>
                </mxCell>
                <mxCell id="29" style="edgeStyle=elbowEdgeStyle;elbow=vertical;html=1;fontColor=#FFFFFF;startArrow=classic;startFill=1;" parent="1" source="18" target="13" edge="1">
                    <mxGeometry relative="1" as="geometry"/>
                </mxCell>
                <mxCell id="18" value="" style="sketch=0;outlineConnect=0;fontColor=#232F3E;gradientColor=none;strokeColor=#232F3E;fillColor=#ffffff;dashed=0;verticalLabelPosition=bottom;verticalAlign=top;align=center;html=1;fontSize=12;fontStyle=0;aspect=fixed;shape=mxgraph.aws4.resourceIcon;resIcon=mxgraph.aws4.internet_gateway;" parent="1" vertex="1">
                    <mxGeometry x="394.25" y="180" width="60" height="60" as="geometry"/>
                </mxCell>
                <mxCell id="19" value="Default&lt;br&gt;Public Subnet" style="text;html=1;strokeColor=default;fillColor=default;align=center;verticalAlign=middle;whiteSpace=wrap;rounded=0;fontColor=#FFFFFF;" parent="1" vertex="1">
                    <mxGeometry x="285.75" y="360" width="60" height="50" as="geometry"/>
                </mxCell>
                <mxCell id="20" value="Default Internet Gateway" style="text;html=1;strokeColor=default;fillColor=default;align=center;verticalAlign=middle;whiteSpace=wrap;rounded=0;fontColor=#FFFFFF;" parent="1" vertex="1">
                    <mxGeometry x="450.75" y="220" width="100" height="40" as="geometry"/>
                </mxCell>
                <mxCell id="21" value="External LoadBalancer" style="text;html=1;strokeColor=default;fillColor=default;align=center;verticalAlign=middle;whiteSpace=wrap;rounded=0;fontColor=#FFFFFF;" parent="1" vertex="1">
                    <mxGeometry x="453.75" y="308" width="100" height="40" as="geometry"/>
                </mxCell>
                <mxCell id="24" value="VPC" style="text;html=1;strokeColor=default;fillColor=default;align=center;verticalAlign=middle;whiteSpace=wrap;rounded=0;fontColor=#FFFFFF;" parent="1" vertex="1">
                    <mxGeometry x="248.75" y="150" width="60" height="30" as="geometry"/>
                </mxCell>
            </root>
        </mxGraphModel>
    </diagram>
    <diagram name="v2" id="DFxNjS_2CUx3qaEgrgcp">
        <mxGraphModel dx="4004" dy="1538" grid="0" gridSize="10" guides="1" tooltips="1" connect="1" arrows="1" fold="1" page="1" pageScale="1" pageWidth="850" pageHeight="1100" math="0" shadow="0">
            <root>
                <mxCell id="iVcGrAR-wwBEdjC-Baw3-0"/>
                <mxCell id="iVcGrAR-wwBEdjC-Baw3-1" parent="iVcGrAR-wwBEdjC-Baw3-0"/>
                <mxCell id="iVcGrAR-wwBEdjC-Baw3-2" value="" style="rounded=1;whiteSpace=wrap;html=1;strokeColor=default;fontColor=#FFFFFF;fillColor=default;dashed=1;dashPattern=12 12;" parent="iVcGrAR-wwBEdjC-Baw3-1" vertex="1">
                    <mxGeometry x="172" y="130" width="507" height="950" as="geometry"/>
                </mxCell>
                <mxCell id="iVcGrAR-wwBEdjC-Baw3-3" value="" style="rounded=1;whiteSpace=wrap;html=1;dashed=1;dashPattern=8 8;" parent="iVcGrAR-wwBEdjC-Baw3-1" vertex="1">
                    <mxGeometry x="219.25" y="420" width="429.75" height="630" as="geometry"/>
                </mxCell>
                <mxCell id="iVcGrAR-wwBEdjC-Baw3-4" style="edgeStyle=elbowEdgeStyle;elbow=vertical;html=1;entryX=0.5;entryY=0;entryDx=0;entryDy=0;entryPerimeter=0;fontColor=#FFFFFF;startArrow=none;startFill=0;rounded=1;" parent="iVcGrAR-wwBEdjC-Baw3-1" source="iVcGrAR-wwBEdjC-Baw3-5" target="iVcGrAR-wwBEdjC-Baw3-9" edge="1">
                    <mxGeometry relative="1" as="geometry"/>
                </mxCell>
                <mxCell id="iVcGrAR-wwBEdjC-Baw3-5" value="ECS" style="points=[[0,0,0],[0.25,0,0],[0.5,0,0],[0.75,0,0],[1,0,0],[0,1,0],[0.25,1,0],[0.5,1,0],[0.75,1,0],[1,1,0],[0,0.25,0],[0,0.5,0],[0,0.75,0],[1,0.25,0],[1,0.5,0],[1,0.75,0]];outlineConnect=0;fontColor=#FFFFFF;gradientColor=#F78E04;gradientDirection=north;fillColor=#D05C17;strokeColor=#ffffff;dashed=0;verticalLabelPosition=bottom;verticalAlign=top;align=center;html=1;fontSize=12;fontStyle=0;aspect=fixed;shape=mxgraph.aws4.resourceIcon;resIcon=mxgraph.aws4.ecs;dashPattern=8 8;rounded=1;" parent="iVcGrAR-wwBEdjC-Baw3-1" vertex="1">
                    <mxGeometry x="386.5" y="520" width="78" height="78" as="geometry"/>
                </mxCell>
                <mxCell id="iVcGrAR-wwBEdjC-Baw3-6" style="edgeStyle=elbowEdgeStyle;elbow=vertical;html=1;fontColor=#FFFFFF;startArrow=none;startFill=0;rounded=1;" parent="iVcGrAR-wwBEdjC-Baw3-1" source="iVcGrAR-wwBEdjC-Baw3-9" target="iVcGrAR-wwBEdjC-Baw3-10" edge="1">
                    <mxGeometry relative="1" as="geometry"/>
                </mxCell>
                <mxCell id="iVcGrAR-wwBEdjC-Baw3-7" style="edgeStyle=elbowEdgeStyle;elbow=vertical;html=1;fontColor=#FFFFFF;startArrow=none;startFill=0;rounded=1;" parent="iVcGrAR-wwBEdjC-Baw3-1" source="iVcGrAR-wwBEdjC-Baw3-9" target="iVcGrAR-wwBEdjC-Baw3-12" edge="1">
                    <mxGeometry relative="1" as="geometry"/>
                </mxCell>
                <mxCell id="iVcGrAR-wwBEdjC-Baw3-8" style="edgeStyle=elbowEdgeStyle;elbow=vertical;html=1;fontColor=#FFFFFF;startArrow=none;startFill=0;rounded=1;" parent="iVcGrAR-wwBEdjC-Baw3-1" source="iVcGrAR-wwBEdjC-Baw3-9" target="iVcGrAR-wwBEdjC-Baw3-13" edge="1">
                    <mxGeometry relative="1" as="geometry"/>
                </mxCell>
                <mxCell id="iVcGrAR-wwBEdjC-Baw3-9" value="Fargate" style="points=[[0,0,0],[0.25,0,0],[0.5,0,0],[0.75,0,0],[1,0,0],[0,1,0],[0.25,1,0],[0.5,1,0],[0.75,1,0],[1,1,0],[0,0.25,0],[0,0.5,0],[0,0.75,0],[1,0.25,0],[1,0.5,0],[1,0.75,0]];outlineConnect=0;fontColor=#FFFFFF;gradientColor=#F78E04;gradientDirection=north;fillColor=#D05C17;strokeColor=#ffffff;dashed=0;verticalLabelPosition=bottom;verticalAlign=top;align=center;html=1;fontSize=12;fontStyle=0;aspect=fixed;shape=mxgraph.aws4.resourceIcon;resIcon=mxgraph.aws4.fargate;dashPattern=8 8;rounded=1;" parent="iVcGrAR-wwBEdjC-Baw3-1" vertex="1">
                    <mxGeometry x="386" y="660" width="78" height="78" as="geometry"/>
                </mxCell>
                <mxCell id="iVcGrAR-wwBEdjC-Baw3-10" value="API Task" style="outlineConnect=0;fontColor=#FFFFFF;gradientColor=none;fillColor=#D45B07;strokeColor=none;dashed=0;verticalLabelPosition=bottom;verticalAlign=top;align=center;html=1;fontSize=12;fontStyle=0;aspect=fixed;pointerEvents=1;shape=mxgraph.aws4.ecs_task;dashPattern=8 8;spacingLeft=-57;rounded=1;" parent="iVcGrAR-wwBEdjC-Baw3-1" vertex="1">
                    <mxGeometry x="309" y="800" width="37" height="48" as="geometry"/>
                </mxCell>
                <mxCell id="iVcGrAR-wwBEdjC-Baw3-11" style="edgeStyle=none;html=1;fontColor=#FFFFFF;startArrow=classic;startFill=1;rounded=1;" parent="iVcGrAR-wwBEdjC-Baw3-1" source="iVcGrAR-wwBEdjC-Baw3-12" target="iVcGrAR-wwBEdjC-Baw3-16" edge="1">
                    <mxGeometry relative="1" as="geometry">
                        <mxPoint x="383.25" y="830" as="sourcePoint"/>
                    </mxGeometry>
                </mxCell>
                <mxCell id="iVcGrAR-wwBEdjC-Baw3-12" value="grpc Task" style="outlineConnect=0;fontColor=#FFFFFF;gradientColor=none;fillColor=#D45B07;strokeColor=none;dashed=0;verticalLabelPosition=bottom;verticalAlign=top;align=center;html=1;fontSize=12;fontStyle=0;aspect=fixed;pointerEvents=1;shape=mxgraph.aws4.ecs_task;dashPattern=8 8;spacingLeft=-63;rounded=1;" parent="iVcGrAR-wwBEdjC-Baw3-1" vertex="1">
                    <mxGeometry x="406.5" y="800" width="37" height="48" as="geometry"/>
                </mxCell>
                <mxCell id="iVcGrAR-wwBEdjC-Baw3-13" value="rmq-csm Task" style="outlineConnect=0;fontColor=#FFFFFF;gradientColor=none;fillColor=#D45B07;strokeColor=none;dashed=0;verticalLabelPosition=bottom;verticalAlign=top;align=center;html=1;fontSize=12;fontStyle=0;aspect=fixed;pointerEvents=1;shape=mxgraph.aws4.ecs_task;dashPattern=8 8;spacingLeft=-82;rounded=1;" parent="iVcGrAR-wwBEdjC-Baw3-1" vertex="1">
                    <mxGeometry x="505" y="800" width="37" height="48" as="geometry"/>
                </mxCell>
                <mxCell id="iVcGrAR-wwBEdjC-Baw3-14" style="edgeStyle=elbowEdgeStyle;html=1;fontColor=#FFFFFF;startArrow=classic;startFill=1;elbow=vertical;rounded=1;" parent="iVcGrAR-wwBEdjC-Baw3-1" source="iVcGrAR-wwBEdjC-Baw3-16" target="iVcGrAR-wwBEdjC-Baw3-13" edge="1">
                    <mxGeometry relative="1" as="geometry">
                        <mxPoint x="481.25" y="830" as="targetPoint"/>
                        <Array as="points">
                            <mxPoint x="469" y="890"/>
                        </Array>
                    </mxGeometry>
                </mxCell>
                <mxCell id="iVcGrAR-wwBEdjC-Baw3-15" style="edgeStyle=elbowEdgeStyle;elbow=vertical;html=1;fontColor=#FFFFFF;startArrow=classic;startFill=1;rounded=1;" parent="iVcGrAR-wwBEdjC-Baw3-1" source="iVcGrAR-wwBEdjC-Baw3-16" target="iVcGrAR-wwBEdjC-Baw3-10" edge="1">
                    <mxGeometry relative="1" as="geometry">
                        <mxPoint x="286.25" y="830" as="targetPoint"/>
                        <Array as="points">
                            <mxPoint x="349" y="890"/>
                        </Array>
                    </mxGeometry>
                </mxCell>
                <mxCell id="iVcGrAR-wwBEdjC-Baw3-16" value="Internal LoadBalancer" style="outlineConnect=0;fontColor=#FFFFFF;gradientColor=none;fillColor=#4D27AA;strokeColor=none;dashed=0;verticalLabelPosition=bottom;verticalAlign=top;align=center;html=1;fontSize=12;fontStyle=0;aspect=fixed;pointerEvents=1;shape=mxgraph.aws4.application_load_balancer;dashPattern=8 8;rounded=1;" parent="iVcGrAR-wwBEdjC-Baw3-1" vertex="1">
                    <mxGeometry x="385" y="940" width="78" height="78" as="geometry"/>
                </mxCell>
                <mxCell id="uVHJasyBs-fy_94zQ9fE-11" style="edgeStyle=elbowEdgeStyle;elbow=vertical;html=1;strokeColor=#2D7600;strokeWidth=3;fontColor=#FFFFFF;startArrow=none;startFill=0;endArrow=classic;endFill=1;fillColor=#60a917;rounded=1;" parent="iVcGrAR-wwBEdjC-Baw3-1" source="iVcGrAR-wwBEdjC-Baw3-20" target="iVcGrAR-wwBEdjC-Baw3-22" edge="1">
                    <mxGeometry relative="1" as="geometry"/>
                </mxCell>
                <mxCell id="iVcGrAR-wwBEdjC-Baw3-20" value="" style="shape=actor;whiteSpace=wrap;html=1;fontColor=#FFFFFF;rounded=1;" parent="iVcGrAR-wwBEdjC-Baw3-1" vertex="1">
                    <mxGeometry x="403.5" y="10" width="40" height="60" as="geometry"/>
                </mxCell>
                <mxCell id="iVcGrAR-wwBEdjC-Baw3-22" value="Internet Gateway" style="outlineConnect=0;fontColor=#FFFFFF;gradientColor=none;strokeColor=#232F3E;fillColor=#ffffff;dashed=0;verticalLabelPosition=bottom;verticalAlign=top;align=center;html=1;fontSize=12;fontStyle=0;aspect=fixed;shape=mxgraph.aws4.resourceIcon;resIcon=mxgraph.aws4.internet_gateway;rounded=1;" parent="iVcGrAR-wwBEdjC-Baw3-1" vertex="1">
                    <mxGeometry x="394" y="160" width="60" height="60" as="geometry"/>
                </mxCell>
                <mxCell id="iVcGrAR-wwBEdjC-Baw3-23" value="Private Subnet" style="text;html=1;strokeColor=default;fillColor=default;align=center;verticalAlign=middle;whiteSpace=wrap;rounded=1;fontColor=#FFFFFF;" parent="iVcGrAR-wwBEdjC-Baw3-1" vertex="1">
                    <mxGeometry x="244.75" y="410" width="60" height="30" as="geometry"/>
                </mxCell>
                <mxCell id="iVcGrAR-wwBEdjC-Baw3-26" value="VPC" style="text;html=1;strokeColor=default;fillColor=default;align=center;verticalAlign=middle;whiteSpace=wrap;rounded=1;fontColor=#FFFFFF;" parent="iVcGrAR-wwBEdjC-Baw3-1" vertex="1">
                    <mxGeometry x="219" y="110" width="60" height="30" as="geometry"/>
                </mxCell>
                <mxCell id="uVHJasyBs-fy_94zQ9fE-0" value="" style="rounded=1;whiteSpace=wrap;html=1;dashed=1;dashPattern=12 12;strokeColor=default;fontColor=#FFFFFF;fillColor=default;" parent="iVcGrAR-wwBEdjC-Baw3-1" vertex="1">
                    <mxGeometry x="231.12" y="260" width="387.88" height="130" as="geometry"/>
                </mxCell>
                <mxCell id="uVHJasyBs-fy_94zQ9fE-1" value="Public Subnet" style="text;html=1;strokeColor=default;fillColor=default;align=center;verticalAlign=middle;whiteSpace=wrap;rounded=1;fontColor=#FFFFFF;" parent="iVcGrAR-wwBEdjC-Baw3-1" vertex="1">
                    <mxGeometry x="239" y="245" width="60" height="30" as="geometry"/>
                </mxCell>
                <mxCell id="uVHJasyBs-fy_94zQ9fE-2" value="" style="outlineConnect=0;fontColor=#232F3E;gradientColor=none;fillColor=#4D27AA;strokeColor=none;dashed=0;verticalLabelPosition=bottom;verticalAlign=top;align=center;html=1;fontSize=12;fontStyle=0;aspect=fixed;pointerEvents=1;shape=mxgraph.aws4.nat_gateway;dashPattern=12 12;rounded=1;" parent="iVcGrAR-wwBEdjC-Baw3-1" vertex="1">
                    <mxGeometry x="299" y="290" width="78" height="78" as="geometry"/>
                </mxCell>
                <mxCell id="uVHJasyBs-fy_94zQ9fE-3" value="NAT GATEWAY" style="text;html=1;strokeColor=default;fillColor=default;align=center;verticalAlign=middle;whiteSpace=wrap;rounded=1;fontColor=#FFFFFF;" parent="iVcGrAR-wwBEdjC-Baw3-1" vertex="1">
                    <mxGeometry x="249" y="344" width="60" height="30" as="geometry"/>
                </mxCell>
                <mxCell id="uVHJasyBs-fy_94zQ9fE-4" style="edgeStyle=elbowEdgeStyle;elbow=vertical;html=1;fontColor=#FFFFFF;startArrow=none;startFill=0;strokeWidth=3;exitX=0.25;exitY=0;exitDx=0;exitDy=0;exitPerimeter=0;rounded=1;" parent="iVcGrAR-wwBEdjC-Baw3-1" source="iVcGrAR-wwBEdjC-Baw3-5" target="uVHJasyBs-fy_94zQ9fE-2" edge="1">
                    <mxGeometry relative="1" as="geometry"/>
                </mxCell>
                <mxCell id="uVHJasyBs-fy_94zQ9fE-5" style="edgeStyle=elbowEdgeStyle;elbow=vertical;html=1;entryX=0.75;entryY=0;entryDx=0;entryDy=0;entryPerimeter=0;strokeWidth=3;fontColor=#FFFFFF;startArrow=none;startFill=0;fillColor=#60a917;strokeColor=#2D7600;rounded=1;" parent="iVcGrAR-wwBEdjC-Baw3-1" source="iVcGrAR-wwBEdjC-Baw3-18" target="iVcGrAR-wwBEdjC-Baw3-5" edge="1">
                    <mxGeometry relative="1" as="geometry"/>
                </mxCell>
                <mxCell id="iVcGrAR-wwBEdjC-Baw3-18" value="" style="outlineConnect=0;fontColor=#FFFFFF;gradientColor=none;fillColor=#4D27AA;strokeColor=none;dashed=0;verticalLabelPosition=bottom;verticalAlign=top;align=center;html=1;fontSize=12;fontStyle=0;aspect=fixed;pointerEvents=1;shape=mxgraph.aws4.application_load_balancer;dashPattern=8 8;spacingLeft=0;spacingRight=0;spacingBottom=0;rounded=1;" parent="iVcGrAR-wwBEdjC-Baw3-1" vertex="1">
                    <mxGeometry x="463" y="296" width="78" height="78" as="geometry"/>
                </mxCell>
                <mxCell id="iVcGrAR-wwBEdjC-Baw3-25" value="LoadBalancer" style="text;html=1;strokeColor=default;fillColor=default;align=center;verticalAlign=middle;whiteSpace=wrap;rounded=1;fontColor=#FFFFFF;" parent="iVcGrAR-wwBEdjC-Baw3-1" vertex="1">
                    <mxGeometry x="532" y="338" width="81" height="36" as="geometry"/>
                </mxCell>
                <mxCell id="uVHJasyBs-fy_94zQ9fE-9" style="edgeStyle=elbowEdgeStyle;elbow=vertical;html=1;strokeWidth=3;fontColor=#FFFFFF;startArrow=classic;startFill=1;endArrow=none;endFill=0;rounded=1;" parent="iVcGrAR-wwBEdjC-Baw3-1" source="iVcGrAR-wwBEdjC-Baw3-22" target="uVHJasyBs-fy_94zQ9fE-2" edge="1">
                    <mxGeometry relative="1" as="geometry">
                        <Array as="points">
                            <mxPoint x="339" y="190"/>
                            <mxPoint x="329" y="220"/>
                            <mxPoint x="379" y="240"/>
                        </Array>
                    </mxGeometry>
                </mxCell>
                <mxCell id="uVHJasyBs-fy_94zQ9fE-10" style="edgeStyle=elbowEdgeStyle;elbow=vertical;html=1;strokeWidth=3;fontColor=#FFFFFF;startArrow=none;startFill=0;endArrow=classic;endFill=1;strokeColor=#2D7600;fillColor=#60a917;rounded=1;" parent="iVcGrAR-wwBEdjC-Baw3-1" source="iVcGrAR-wwBEdjC-Baw3-22" target="iVcGrAR-wwBEdjC-Baw3-18" edge="1">
                    <mxGeometry relative="1" as="geometry">
                        <Array as="points">
                            <mxPoint x="499" y="190"/>
                        </Array>
                    </mxGeometry>
                </mxCell>
            </root>
        </mxGraphModel>
    </diagram>
</mxfile>